<?xml version="1.0" encoding="UTF-8" standalone="no"?>
<svg width="115px" height="22px" viewBox="0 0 115 22" version="1.1" xmlns="http://www.w3.org/2000/svg" xmlns:xlink="http://www.w3.org/1999/xlink">
    <defs>
        <polygon id="path-1" points="0 7.11548156 0 0.0686728972 21.8267592 0.0686728972 21.8267592 14.1622902 0 14.1622902"></polygon>
    </defs>
    <g id="Venda-Guiada-Desktop" stroke="none" stroke-width="1" fill="none" fill-rule="evenodd">
        <g id="1-Questionario-Venda-Guiada" transform="translate(-80.000000, -39.000000)">
            <g id="Area-de-titulo" transform="translate(0.000000, -1.000000)">
                <g id="logo" transform="translate(80.000000, 40.000000)">
                    <g id="Page-1">
                        <path d="M29.2724121,8.35274206 L35.9843808,8.35274206 L35.9843808,17.9459757 L36.0330812,17.9459757 C38.6834397,17.9459757 40.8321844,15.8596766 40.8321844,13.2858822 L40.8321844,8.35274206 L47.7306967,8.35274206 L47.7306967,4.36971402 L29.2724121,4.36971402 L29.2724121,8.35274206 Z" id="Fill-1" fill="#FFFFFF"></path>
                        <path d="M61.4057376,13.9651888 L56.7925427,13.9651888 C55.1835251,13.9651888 53.7932356,12.7673196 53.7180676,11.2065533 C53.6382414,9.54688972 55.0056629,8.17158131 56.6981064,8.17158131 L61.3110895,8.17158131 C62.9201071,8.17158131 64.3106084,9.36965607 64.3855646,10.9302168 C64.4653908,12.5902916 63.0977576,13.9651888 61.4057376,13.9651888 M62.5457496,4.18875888 L55.5580944,4.18875888 C51.6612184,4.18875888 48.4730385,7.28459065 48.4730385,11.068385 C48.4730385,14.8521794 51.6612184,17.9482168 55.5580944,17.9482168 L62.5457496,17.9482168 C66.4424138,17.9482168 69.6308055,14.8521794 69.6308055,11.068385 C69.6308055,7.28459065 66.4424138,4.18875888 62.5457496,4.18875888" id="Fill-3" fill="#FFFFFF"></path>
                        <path d="M106.115276,13.9651888 L101.502081,13.9651888 C99.893063,13.9651888 98.5025618,12.7673196 98.4273938,11.2065533 C98.3475676,9.54688972 99.7152008,8.17158131 101.407433,8.17158131 L106.020627,8.17158131 C107.629433,8.17158131 109.020146,9.36965607 109.095103,10.9302168 C109.174929,12.5902916 107.807296,13.9651888 106.115276,13.9651888 M107.255287,4.18875888 L100.267421,4.18875888 C96.3707563,4.18875888 93.1825764,7.28459065 93.1825764,11.068385 C93.1825764,14.8521794 96.3707563,17.9482168 100.267421,17.9482168 L107.255287,17.9482168 C111.151952,17.9482168 114.340132,14.8521794 114.340132,11.068385 C114.340132,7.28459065 111.151952,4.18875888 107.255287,4.18875888" id="Fill-5" fill="#FFFFFF"></path>
                        <path d="M85.3932074,9.27094393 C85.3932074,9.96075701 84.8117674,10.5255607 84.1009538,10.5255607 L77.5615538,10.5255607 L77.5615538,7.99103738 L84.1009538,7.99103738 C84.8117674,7.99103738 85.3932074,8.55563551 85.3932074,9.24585981 L85.3932074,9.27094393 Z M90.3028392,9.47696262 C90.3028392,8.12200935 89.7326215,6.89083178 88.8117612,5.99623364 C87.892383,5.10369159 86.6242679,4.54999065 85.2291083,4.54999065 L72.1551782,4.54999065 L72.1551782,12.2012617 L72.1551782,14.5081776 L72.1551782,17.7664393 L77.3752219,17.7664393 L77.3752219,14.5081776 L82.8940318,14.5081776 L84.8301888,17.7664393 L90.3028392,17.7664393 L87.95527,13.6263271 C89.3635574,12.747972 90.3028392,11.213729 90.3028392,9.47696262 L90.3028392,9.47696262 Z" id="Fill-7" fill="#FFFFFF"></path>
                        <path d="M10.6276685,21.8605981 L10.6276685,16.4557944 C10.6276685,16.3976075 10.5599115,16.3645047 10.5116346,16.3992523 C7.75053578,18.3882991 4.6080919,20.201757 1.15248351,21.7968598 C1.08260908,21.8293458 1.10632404,21.9313271 1.18382114,21.9313271 L10.5548297,21.9313271 C10.5950605,21.9313271 10.6276685,21.8994579 10.6276685,21.8605981" id="Fill-9" fill="#00ADD2"></path>
                        <g id="Group-13" transform="translate(0.000000, 0.136935)">
                            <mask id="mask-2" fill="white">
                                <use xlink:href="#path-1"></use>
                            </mask>
                            <g id="Clip-12"></g>
                            <path d="M21.8133162,0.180235514 C21.8474065,0.133357009 21.812681,0.0685906542 21.7538171,0.0685906542 L7.52081828,0.0685906542 C3.36731251,0.0685906542 0,3.31122617 0,7.31111402 L0,14.0914318 C0,14.1399551 0.0491238447,14.174086 0.0963420231,14.1584598 C9.80550054,10.9832636 17.5363656,6.02935701 21.8133162,0.180235514" id="Fill-11" fill="#00ADD2" mask="url(#mask-2)"></path>
                        </g>
                        <path d="M14.5430084,13.2995551 L14.5430084,21.8606393 C14.5430084,21.8994991 14.5756164,21.9311626 14.6158472,21.9311626 L14.8534202,21.9311626 C19.0067143,21.9311626 22.373815,18.6887327 22.373815,14.6888449 L22.373815,2.20045234 C22.373815,2.12088224 22.2592633,2.10196636 22.2323722,2.17721869 C20.8262022,6.1236486 18.191936,9.87228411 14.5652411,13.2487701 C14.5510545,13.261929 14.5430084,13.280228 14.5430084,13.2995551" id="Fill-14" fill="#00ADD2"></path>
                    </g>
                </g>
            </g>
        </g>
    </g>
</svg>